<svg fill="#000000" xmlns="http://www.w3.org/2000/svg" xmlns:xlink="http://www.w3.org/1999/xlink" version="1.1" x="0px" y="0px" viewBox="0 0 100 100" style="enable-background:new 0 0 100 100;" xml:space="preserve"><circle cx="40.4" cy="72.4" r="2.4"/><circle cx="60.2" cy="72.4" r="2.4"/><path d="M91.7,68.7l3.1-2.6c0.5-0.4,0.7-1,0.7-1.6c0-0.6-0.3-1.2-0.9-1.5L91,60.6l2.9-3.3c0.4-0.5,0.6-1.1,0.5-1.7  c-0.1-0.6-0.5-1.1-1.1-1.4l-3.6-1.8l2-3.5c0.3-0.5,0.4-1.2,0.1-1.7c-0.2-0.6-0.7-1-1.3-1.1l-3.9-1l1.3-3.8c0.2-0.6,0.1-1.2-0.2-1.7  c-0.3-0.5-0.9-0.8-1.5-0.9l-4-0.2l0.5-4c0.1-0.6-0.1-1.2-0.6-1.6c-0.4-0.4-1-0.6-1.6-0.6l-4,0.5l-0.3-4c0-0.6-0.4-1.2-0.9-1.5  c-0.5-0.3-1.1-0.4-1.7-0.2l-3.8,1.3l-1-3.9c-0.2-0.6-0.6-1.1-1.1-1.3c-0.6-0.2-1.2-0.2-1.7,0.1l-3.5,2l-1.8-3.6  c-0.3-0.6-0.8-0.9-1.4-1.1c-0.6-0.1-1.2,0-1.7,0.5l-3,2.7L52,20.3c-0.8-1-2.4-1-3.1,0l-2.5,3.2l-3-2.7c-0.5-0.4-1.1-0.6-1.7-0.5  c-0.6,0.1-1.1,0.5-1.4,1.1l-1.8,3.6l-3.5-2c-0.5-0.3-1.2-0.4-1.7-0.1c-0.6,0.2-1,0.7-1.1,1.3l-1,3.9l-3.8-1.3  c-0.6-0.2-1.2-0.1-1.7,0.2c-0.5,0.3-0.8,0.9-0.9,1.5l-0.2,4l-4-0.5c-0.6-0.1-1.2,0.1-1.6,0.6c-0.4,0.4-0.6,1-0.6,1.6l0.5,4l-4,0.3  c-0.6,0-1.2,0.4-1.5,0.9c-0.3,0.5-0.4,1.1-0.2,1.7l1.3,3.8l-3.9,1c-0.6,0.2-1.1,0.6-1.3,1.1c-0.2,0.6-0.2,1.2,0.1,1.7l2,3.5  l-3.6,1.8C7,54.5,6.6,55,6.5,55.6c-0.1,0.6,0,1.2,0.5,1.7l2.9,3.3L6.3,63c-0.5,0.4-0.8,0.9-0.8,1.5c0,0.6,0.2,1.2,0.7,1.6l3.1,2.6  l-2.8,2.9c-0.4,0.4-0.6,1-0.5,1.7c0.1,0.6,0.4,1.1,1,1.4l3.5,2l-2.2,3.4c-0.3,0.5-0.4,1.1-0.3,1.6c0,0.1,0.1,0.2,0.2,0.3  c0,0,0,0,0,0c0,0,0,0,0,0c0.1,0.1,0.2,0.1,0.2,0.2c0,0,0,0,0.1,0c0.1,0,0.2,0.1,0.3,0.1c0,0,0,0,0.1,0c0,0,0.1,0,0.1,0  c0.1,0,0.2,0,0.3,0c0.1,0,0.3-0.1,0.4-0.2l0,0c0.1-0.1,7.9-6.4,22-5.2c4.5,0.4,8.9,2.2,12.3,3.7c2.8,1.2,5,2.1,6.7,2.1  c0.1,0,0.2,0,0.3-0.1c0.1,0,0.2,0.1,0.3,0.1c1.6,0,3.6-0.9,6.2-2.1c3.6-1.7,8.1-3.7,12.8-3.7c3.1,0,6,0.4,8.6,0.9c0,0,0,0,0.1,0  c7.7,1.5,12.9,4.4,13,4.4c0,0,0.1,0,0.1,0c0,0,0.1,0,0.1,0.1c0,0,0.1,0,0.1,0c0,0,0.1,0,0.1,0c0,0,0,0,0.1,0c0.1,0,0.1,0,0.2,0  c0,0,0.1,0,0.1,0c0.1,0,0.2-0.1,0.3-0.2c0,0,0,0,0,0c0.1-0.1,0.1-0.1,0.2-0.2c0,0,0,0,0,0c0,0,0-0.1,0-0.1c0,0,0-0.1,0.1-0.1  c0,0,0-0.1,0-0.1c0,0,0,0,0,0c0.1-0.5,0-1-0.3-1.4l-2.2-3.4l3.5-2c0.5-0.3,0.9-0.8,1-1.4c0.1-0.6-0.1-1.2-0.5-1.7L91.7,68.7z   M23.9,75c0.7-5,2-9.4,4-13c1.8-3.4,4.3-6.1,7.2-8.2c2.9,2.2,5,5.5,6.7,9.8c-3.9-0.2-6.9,0.7-8.9,2.8c-2.5,2.7-2.7,6.5-2.6,8.4  C28,74.8,25.9,74.8,23.9,75z M66,53.5c3.2,2,5.8,4.9,7.8,8.5c2.1,3.8,3.4,8.4,4,13.7c-2.2-0.4-4.6-0.6-7.1-0.7  c0.1-1.9-0.2-5.7-2.8-8.4c-2.1-2.2-5.2-3.1-9.3-2.8C60.4,59.1,62.7,55.7,66,53.5C65.9,53.5,65.9,53.5,66,53.5  C65.9,53.5,65.9,53.5,66,53.5L66,53.5C65.9,53.5,65.9,53.5,66,53.5z M52.9,77.1c-0.7-0.2-1.4-0.2-2.2-0.2c-1.1,0-2.2,0.2-3,0.5  c-2.3-11.2-5-19.4-10.2-24.1c0.1-0.1,0.1-0.3,0.1-0.5l0.1-1.5l1.4,0.5c0.4,0.2,0.9,0.1,1.3-0.1c0.4-0.2,0.7-0.6,0.7-1.1l0.2-1.4  l1.3,0.7c0.4,0.2,0.8,0.2,1.3,0.1c0.4-0.2,0.7-0.5,0.9-0.9l0.4-1.4l1.1,0.9c0.3,0.3,0.8,0.4,1.2,0.3c0.4-0.1,0.8-0.4,1-0.8l0.7-1.3  l0.9,1.1c0.3,0.3,0.7,0.5,1.2,0.5c0.4,0,0.9-0.2,1.1-0.6l0.8-1l0.6,1.1c0.2,0.4,0.6,0.7,1,0.8c0.4,0.1,0.9,0,1.2-0.3l0.9-0.8  l0.3,1.2c0.1,0.4,0.5,0.8,0.9,1c0.4,0.2,0.9,0.1,1.3-0.1l1.1-0.7l0.2,1.3c0.1,0.5,0.4,0.9,0.8,1.1c0.4,0.2,0.9,0.2,1.3,0l1.2-0.6  l0.1,1.3c0,0.1,0,0.2,0.1,0.3C58.2,57,55.3,65.3,52.9,77.1z M32.3,75.1c-0.1-1.5-0.1-4.9,2.1-7.2c1.7-1.8,4.5-2.5,8.2-2.2  c1.2,3.6,2.3,7.8,3.2,12.6c-0.2,0.2-0.4,0.5-0.5,0.8c-0.3-0.1-0.5-0.2-0.8-0.4C41.1,77.4,36.9,75.6,32.3,75.1z M56.4,78.8  C56.2,78.9,56.1,79,56,79c-0.2-0.5-0.6-0.9-1.2-1.2c0.9-4.5,1.9-8.6,3.1-12c3.9-0.4,6.8,0.3,8.6,2.1c2.2,2.2,2.3,5.6,2.3,7.1  C64.1,75.3,59.8,77.2,56.4,78.8z M89.6,75c-0.5,0.3-0.8,0.7-0.9,1.3c-0.1,0.5,0,1.1,0.3,1.5l1,1.5c-2.2-1-5.7-2.3-10.1-3.2  c-0.6-5.8-2.1-10.9-4.3-15c-1.9-3.5-4.4-6.4-7.4-8.5c0,0,3.7-1.6,5.7,0.3c1.5,1.4,1.7,3,1.1,4.1c-0.3,0.5-0.1,1.1,0.4,1.3  c0.5,0.3,1.1,0.1,1.3-0.4c1.1-2,0.6-4.6-1.5-6.5c-2.4-2.1-6.6-1.4-9.3-0.1L65.7,50c0-0.5-0.3-0.9-0.7-1.2c-0.4-0.2-0.9-0.3-1.4-0.1  l-1.2,0.6L62.2,48c-0.1-0.5-0.4-0.9-0.8-1.1c-0.4-0.2-1-0.2-1.4,0.1l-1.2,0.7l-0.4-1.3c-0.1-0.5-0.5-0.9-1-1c-0.5-0.1-1,0-1.4,0.3  L55,46.6l-0.6-1.2c-0.2-0.5-0.7-0.8-1.2-0.8c-0.5-0.1-1,0.2-1.3,0.6L51,46.3l-1-1.2c-0.3-0.4-0.8-0.6-1.3-0.5  c-0.5,0.1-0.9,0.3-1.1,0.8l-0.7,1.4l-1.2-1c-0.4-0.3-0.9-0.4-1.4-0.3c-0.5,0.1-0.8,0.5-1,1l-0.5,1.5l-1.4-0.8  c-0.4-0.2-0.9-0.2-1.4,0c-0.4,0.2-0.7,0.6-0.8,1.1l-0.2,1.5l-1.5-0.6c-0.4-0.2-0.9-0.1-1.3,0.1c-0.4,0.3-0.6,0.7-0.7,1.2l-0.1,1.3  c-2.5-1.7-7.3-2.7-10-0.3c-2.1,1.9-2.1,4.9-1,7c0.3,0.5,0.9,0.7,1.3,0.4c0.5-0.3,0.7-0.9,0.4-1.3c-0.6-1.1-0.9-3.2,0.6-4.5  c1.5-1.4,4.3-1.1,6.4-0.2c-2.9,2.1-5.3,4.9-7.1,8.3c-2.2,4-3.6,8.7-4.2,14.2c-4.7,0.7-8.2,2.1-10.5,3.3l0.6-0.9  c0.3-0.5,0.4-1,0.3-1.5c-0.1-0.5-0.5-1-0.9-1.3l-3.5-2l2.8-2.9c0.4-0.4,0.6-0.9,0.6-1.5c0-0.5-0.3-1.1-0.7-1.4l-3.1-2.6l3.7-2.5  c0.7-0.5,1-1.3,0.8-2c-0.1-0.3-0.3-0.5-0.5-0.7c0,0,0-0.1-0.1-0.1L8.4,56l3.6-1.8c0.5-0.2,0.9-0.7,1-1.2c0.2-0.5,0.1-1.1-0.2-1.6  l-2-3.5l3.9-1c0.5-0.1,1-0.5,1.2-1c0.3-0.5,0.3-1,0.1-1.6l-1.3-3.8l4-0.3c0.5,0,1.1-0.3,1.4-0.7c0.3-0.4,0.5-1,0.4-1.5l-0.5-4l4,0.5  c0.5,0.1,1.1-0.1,1.5-0.4c0.4-0.3,0.7-0.9,0.7-1.4l0.2-4l3.8,1.3c0.5,0.2,1.1,0.1,1.6-0.1c0.5-0.3,0.8-0.7,1-1.2l1-3.9l3.5,2  c0.5,0.3,1,0.3,1.6,0.2c0.5-0.2,1-0.5,1.2-1l1.8-3.6l3,2.7c0.4,0.4,0.9,0.5,1.5,0.5c0.5-0.1,1-0.3,1.4-0.8l2.4-3.2l2.5,3.2  c0.3,0.4,0.8,0.7,1.4,0.8c0.5,0,1.1-0.1,1.5-0.5l3-2.7l1.8,3.6c0.2,0.5,0.7,0.9,1.2,1c0.5,0.2,1.1,0.1,1.6-0.2l3.5-2l1,3.9  c0.1,0.5,0.5,1,1,1.2c0.5,0.3,1,0.3,1.6,0.1l3.8-1.3l0.3,4c0,0.5,0.3,1.1,0.7,1.4c0.4,0.3,1,0.5,1.5,0.4l4-0.5l-0.5,4  c-0.1,0.5,0.1,1.1,0.4,1.5s0.9,0.7,1.4,0.7l4,0.2l-1.3,3.8c-0.2,0.5-0.1,1.1,0.1,1.6c0.3,0.5,0.7,0.8,1.2,1l3.9,1l-2,3.5  c-0.3,0.5-0.3,1-0.2,1.6c0.2,0.5,0.5,1,1,1.2l3.6,1.8l-2.9,3.3c0,0-0.1,0.1-0.1,0.1c-0.2,0.1-0.4,0.4-0.4,0.6  c-0.1,0.5,0,0.9,0.2,1.3c0,0,0,0.1,0,0.1c0.1,0.1,0.2,0.3,0.3,0.4c0.1,0.1,0.2,0.2,0.3,0.3l3.7,2.5l-3.1,2.6  c-0.4,0.4-0.7,0.9-0.7,1.4c0,0.5,0.2,1.1,0.6,1.5l2.8,2.9L89.6,75z"/><path d="M75.1,42.3l-4.4,0.9l0.3-3.6c0-0.5-0.2-1-0.6-1.3c-0.4-0.3-1-0.4-1.5-0.1l-3.3,1.5L65.2,36c-0.1-0.5-0.4-1-0.9-1.2  c-0.5-0.2-1-0.2-1.5,0.2l-3,2.1l-1.2-3.5c-0.2-0.5-0.6-0.9-1.1-1c-0.5-0.1-1,0.1-1.4,0.5l-2.5,2.7L52,32.7c-0.3-0.5-0.7-0.7-1.3-0.7  h0c-0.5,0-1,0.3-1.3,0.7l-1.8,3.2l-2.5-2.7c-0.4-0.4-0.9-0.6-1.4-0.5c-0.5,0.1-0.9,0.5-1.1,1l-1.2,3.5l-3-2.1  c-0.4-0.3-1-0.4-1.5-0.2c-0.5,0.2-0.8,0.7-0.9,1.2l-0.4,3.6l-3.3-1.5c-0.5-0.2-1-0.2-1.5,0.1c-0.4,0.3-0.7,0.8-0.6,1.3l0.3,3.6  l-4.4-0.9c-0.5-0.1-1.1,0.2-1.2,0.8c-0.1,0.5,0.2,1.1,0.8,1.2l5.1,1.1c0.1,0,0.2,0,0.3,0c0.4,0,0.7-0.1,1-0.4  c0.3-0.3,0.5-0.8,0.5-1.2l-0.3-3.5l3.2,1.4c0.4,0.2,0.9,0.2,1.3-0.1c0.4-0.2,0.7-0.6,0.7-1.1l0.4-3.5l2.8,2c0.4,0.3,0.9,0.4,1.3,0.2  c0.4-0.1,0.8-0.5,0.9-0.9l1.1-3.3l2.3,2.6c0.3,0.3,0.8,0.5,1.2,0.5c0.5,0,0.9-0.3,1.1-0.7l1.8-3l1.8,3c0.2,0.4,0.7,0.7,1.1,0.7  c0.5,0,0.9-0.1,1.2-0.5l2.3-2.6l1.1,3.3c0.1,0.4,0.5,0.8,0.9,0.9c0.4,0.1,0.9,0.1,1.3-0.2l2.8-2l0.4,3.5c0.1,0.5,0.3,0.9,0.7,1.1  c0.4,0.2,0.9,0.3,1.3,0.1l3.2-1.4l-0.3,3.5c0,0.5,0.1,0.9,0.5,1.2c0.3,0.3,0.8,0.4,1.3,0.3l5.1-1.1c0.5-0.1,0.9-0.6,0.8-1.2  C76.2,42.5,75.6,42.2,75.1,42.3z"/></svg>